<svg width="299" height="273" viewBox="0 0 299 273" fill="none" xmlns="http://www.w3.org/2000/svg">
<path fill-rule="evenodd" clip-rule="evenodd" d="M83.6327 45.4324C89.6833 28.8035 102.566 14.6635 124.794 15.2096C131.447 15.3731 142.585 18.9005 145.679 21.8093C147.67 23.6807 147.069 25.2954 147.017 29.143L147.001 136.703C147.002 160.25 147.805 185.27 146.868 208.639C136.739 210.029 127.822 209.243 118.873 205.981C115.2 204.642 110.499 201.502 107.836 200.636C102.607 198.935 90.0933 213.182 71.9957 201.547C69.1172 199.696 65.3745 196.472 63.371 193.843C61.3045 191.131 59.7492 186.522 57.2541 184.244C53.148 182.552 45.8 182.747 39.5076 179.897C34.0225 177.413 30.5634 174.79 26.8099 171.13C6.95929 151.777 7.24005 112.911 30.4316 93.8306C34.5894 90.4097 39.3277 88.9854 44.0572 85.9726C44.8128 78.6209 40.998 66.7833 52.8159 54.9808C61.8685 45.9397 67.9486 46.0036 83.6327 45.4324ZM223.089 124.353C230.073 121.564 234.026 132.71 227.384 135.187C220.219 137.859 215.335 127.45 223.089 124.353ZM221.269 114.678C209.642 117.241 205.42 130.458 213.258 140.493C218.59 147.32 218.015 143.704 218.574 155.763C219.226 169.826 218.417 169.824 204.739 183.23C199.612 188.255 199.013 189.226 199.383 199.137C199.628 205.674 198.829 225.946 201.887 228.414C204.653 230.645 208.106 229.251 209.305 226.96C210.758 224.182 210.178 210.898 210.182 206.942C210.194 196.857 208.939 196.379 214.213 190.243C219.723 183.834 229.579 176.558 229.697 164.486C229.738 160.243 228.505 148.441 230.188 145.734C232.208 142.486 238.031 141.893 240.032 134.883C243.539 122.598 234.017 111.869 221.269 114.678ZM93.241 84.4999C92.9937 89.5969 93.4857 89.7282 95.7641 92.2654C101.322 92.9155 107.048 91.0526 103.887 84.2843C101.348 78.8486 96.2623 81.5131 93.241 84.4999ZM54.1137 108.922C63.1681 104.283 60.7648 116.385 61.8977 122.475C66.4407 146.905 87.1484 147.527 89.5048 150.914C95.8599 160.047 73.5346 165.655 58.1845 142.721C54.2251 136.806 44.2534 113.972 54.1137 108.922ZM134.19 148.182C129.09 151.687 127.391 151.299 121.404 147.939C111.192 142.208 99.773 133.286 95.0602 121.768C92.8717 116.42 93.2198 112.359 92.3939 106.357C91.5193 99.9973 88.3887 101.479 85.1752 96.2491C79.6369 87.235 84.0175 76.1872 91.6941 72.7496C108.683 65.1412 121.557 85.6018 110.751 97.3177C107.165 101.206 104.228 100.299 104.207 108.069C104.192 113.659 105.711 118.666 108.245 122.268C120.832 140.159 135.402 135.848 134.19 148.182ZM192.982 74.5418C189.181 61.5691 205.678 63.3365 202.797 72.6649C200.454 77.2916 196.901 76.6146 192.982 74.5418ZM153.799 10.9094C144.338 7.68041 131.716 -4.08028 106.119 5.00969C95.9899 8.60663 86.6656 15.396 80.4704 23.2306C78.2277 26.0674 76.5402 29.6887 74.3772 32.46C60.1905 33.4757 49.8055 38.6068 43.0791 45.9463C35.175 54.5708 32.2425 62.7042 30.4986 78.1838C29.0057 80.9182 0.402163 92.8411 0.00342573 134.098C-0.253296 160.665 13.9545 181.472 30.6039 189.851C48.3471 198.779 45.5931 190.871 51.8094 200.361C53.4153 202.813 54.9545 204.878 56.7916 206.581C79.35 227.506 98.5025 215.849 104.488 215.356C105.573 215.267 117.933 219.182 120.571 219.865C134.381 223.439 146.544 220.582 159.46 224.007C161.993 206.361 158.584 29.5885 160.134 24.2482C160.803 21.9406 166.994 17.6947 170.146 16.3C183.431 10.4192 200.575 13.0895 209.8 25.2133C213.177 29.6506 214.663 34.5132 216.995 37.3873C232.499 35.7722 243.158 37.3614 251.359 46.3194C260.466 56.2665 259.595 66.5356 258.713 82.2038C269.8 87.1932 280.727 96.1534 284.354 109.043C289.964 128.981 281.139 137.836 274.022 148.843C278.23 157.474 281.575 159.494 283.953 171.928C287.152 188.657 281.236 209.376 266.41 219.822C258.133 225.654 242.846 228.971 242.468 229.363C239.92 232.003 240.19 248.261 222.355 256.607C210.516 262.148 192.457 260.725 186.502 250.927C182.817 244.861 184.524 214.025 184.476 204.341C184.329 174.543 183.486 136.811 184.012 108.036C184.146 100.746 196.13 88.5905 198.667 86.8763C201.143 85.205 204.341 84.7976 206.836 83.0553C217.919 75.3161 213.937 55.497 198.182 55.2674C190.749 55.1591 185.843 59.2559 183.403 64.476C179.006 73.8862 184.639 77.0834 186.09 82.9392C182.339 90.1985 173.002 95.5285 172.602 104.581C172.101 115.911 172.659 128.667 172.645 140.172C172.617 164.164 172.831 188.154 172.799 212.145C172.765 236.864 168.013 257.972 187.178 268.433C205.842 278.62 235.906 271.489 248.114 249.805C251.26 244.217 249.829 241.592 255.95 239.575C282.709 230.758 299.891 206.568 296.771 174.352C295.1 157.098 288.871 151.102 290.693 147.45C295.132 138.556 299.302 132.524 298.983 119.362C298.454 97.5037 287.004 86.1191 272.259 74.2678C271.542 56.969 270.384 47.0116 260.672 36.8612C251.007 26.7607 242.806 24.4763 224.682 23.7649C222.57 21.1874 221.852 18.9408 219.603 16.1377C208.302 2.05055 188.277 -3.08195 171.28 1.80136C162.892 4.21103 159.55 6.94793 153.799 10.9094Z" fill="white"/>
</svg>
