<?xml version="1.0" encoding="UTF-8"?>
<!DOCTYPE svg PUBLIC "-//W3C//DTD SVG 1.1//EN" "http://www.w3.org/Graphics/SVG/1.1/DTD/svg11.dtd">
<!-- Creator: CorelDRAW -->
<svg xmlns="http://www.w3.org/2000/svg" xml:space="preserve" width="210mm" height="297mm" version="1.1" style="shape-rendering:geometricPrecision; text-rendering:geometricPrecision; image-rendering:optimizeQuality; fill-rule:evenodd; clip-rule:evenodd"
viewBox="0 0 21000 29700"
 xmlns:xlink="http://www.w3.org/1999/xlink"
 xmlns:xodm="http://www.corel.com/coreldraw/odm/2003">
 <defs>
  <style type="text/css">
   <![CDATA[
    .fil0 {fill:#F17805}
    .fil1 {fill:#F17805;fill-rule:nonzero}
   ]]>
  </style>
 </defs>
 <g id="Camada_x0020_1">
  <metadata id="CorelCorpID_0Corel-Layer"/>
  <g id="_2010167005344">
   <path class="fil0" d="M8684.04 9197.21c166.16,-449.73 519.94,-832.15 1130.37,-817.38 182.7,4.42 488.55,99.82 573.54,178.49 54.66,50.61 38.17,94.28 36.74,198.34l-0.46 2908.98c0.05,636.84 22.09,1313.51 -3.64,1945.53 -278.15,37.6 -523.03,16.34 -768.79,-71.9 -100.87,-36.21 -229.97,-121.12 -303.1,-144.55 -143.58,-46 -487.24,339.32 -984.23,24.63 -79.05,-50.05 -181.83,-137.24 -236.85,-208.35 -56.75,-73.35 -99.46,-197.99 -167.98,-259.59 -112.76,-45.76 -314.55,-40.5 -487.35,-117.58 -150.63,-67.18 -245.62,-138.11 -348.7,-237.09 -545.13,-523.42 -537.42,-1574.57 99.46,-2090.59 114.18,-92.52 244.3,-131.04 374.18,-212.52 20.75,-198.83 -84.01,-518.98 240.53,-838.18 248.6,-244.52 415.57,-242.79 846.28,-258.24zm3829.7 2134.42c191.8,-75.43 300.35,226.01 117.96,293.01 -196.77,72.28 -330.9,-209.24 -117.96,-293.01zm-49.96 -261.65c-319.3,69.3 -435.25,426.77 -220.01,698.16 146.44,184.64 130.65,86.85 145.99,412.98 17.9,380.33 -4.31,380.28 -379.93,742.85 -140.81,135.91 -157.26,162.16 -147.08,430.21 6.72,176.79 -15.21,725.07 68.76,791.81 75.94,60.34 170.77,22.63 203.71,-39.34 39.91,-75.13 23.97,-434.4 24.09,-541.38 0.33,-272.75 -34.15,-285.69 110.69,-451.62 151.32,-173.35 421.98,-370.11 425.22,-696.61 1.13,-114.74 -32.75,-433.95 13.48,-507.16 55.47,-87.83 215.38,-103.88 270.32,-293.46 96.31,-332.25 -165.16,-622.41 -515.24,-546.44zm-3515.88 -816.18c-6.79,137.85 6.72,141.4 69.29,210.02 152.64,17.58 309.87,-32.8 223.06,-215.85 -69.73,-147.01 -209.38,-74.95 -292.35,5.83zm-1074.5 660.49c248.65,-125.44 182.65,201.84 213.76,366.56 124.76,660.72 693.43,677.54 758.14,769.14 174.52,247 -438.57,398.66 -860.11,-221.59 -108.73,-159.97 -382.57,-777.52 -111.79,-914.11zm2199.03 1061.8c-140.06,94.79 -186.7,84.3 -351.12,-6.57 -280.44,-154.98 -594.03,-396.3 -723.45,-707.8 -60.1,-144.64 -50.54,-254.46 -73.22,-416.8 -24.02,-171.99 -109.99,-131.91 -198.24,-273.36 -152.09,-243.79 -31.79,-542.58 179.02,-635.55 466.54,-205.77 820.1,347.59 523.33,664.45 -98.47,105.15 -179.13,80.64 -179.7,290.77 -0.41,151.19 41.3,286.59 110.89,384.01 345.66,483.86 745.78,367.28 712.49,700.85zm1614.53 -1991.61c-104.39,-350.85 348.66,-303.05 269.54,-50.76 -64.35,125.13 -161.91,106.82 -269.54,50.76zm-1076.03 -1720.95c-259.82,-87.33 -606.44,-405.4 -1309.38,-159.56 -278.16,97.28 -534.22,280.9 -704.35,492.79 -61.59,76.72 -107.93,174.66 -167.33,249.61 -389.59,27.47 -674.78,166.24 -859.5,364.74 -217.06,233.25 -297.59,453.22 -345.48,871.87 -41,73.95 -826.5,396.41 -837.45,1512.2 -7.05,718.51 383.12,1281.26 840.34,1507.85 487.26,241.48 411.63,27.6 582.34,284.25 44.1,66.31 86.37,122.16 136.82,168.24 619.49,565.9 1145.45,250.63 1309.81,237.32 29.81,-2.41 369.23,103.46 441.69,121.93 379.24,96.66 713.25,19.41 1067.95,112.02 69.57,-477.23 -24.06,-5258.08 18.5,-5402.51 18.38,-62.41 188.39,-177.24 274.94,-214.96 364.85,-159.05 835.64,-86.83 1088.98,241.06 92.74,120.01 133.55,251.52 197.59,329.25 425.75,-43.68 718.48,-0.7 943.7,241.57 250.08,269.02 226.15,546.75 201.94,970.5 304.48,134.94 604.55,377.27 704.15,725.87 154.07,539.24 -88.28,778.72 -283.73,1076.4 115.56,233.42 207.41,288.05 272.71,624.35 87.85,452.43 -74.62,1012.77 -481.75,1295.29 -227.31,157.73 -647.11,247.45 -657.48,258.05 -69.99,71.4 -62.57,511.08 -552.36,736.82 -325.1,149.84 -821.05,111.37 -984.56,-153.62 -101.21,-164.05 -54.33,-998.03 -55.64,-1259.94 -4.04,-805.89 -27.19,-1826.35 -12.74,-2604.57 3.66,-197.16 332.76,-525.92 402.45,-572.28 67.99,-45.2 155.8,-56.22 224.31,-103.34 304.38,-209.31 195.02,-745.32 -237.64,-751.53 -204.12,-2.93 -338.86,107.87 -405.86,249.05 -120.76,254.5 33.95,340.97 73.8,499.34 -103.02,196.33 -359.42,340.48 -370.42,585.3 -13.76,306.43 1.57,651.43 1.19,962.56 -0.78,648.87 5.12,1297.7 4.22,1946.53 -0.93,668.53 -131.42,1239.42 394.89,1522.33 512.54,275.5 1338.14,82.64 1673.4,-503.81 86.4,-151.13 47.09,-222.11 215.18,-276.66 734.84,-238.46 1206.7,-892.68 1121.03,-1763.96 -45.89,-466.66 -216.95,-628.8 -166.91,-727.57 121.89,-240.54 236.4,-403.69 227.64,-759.67 -14.53,-591.15 -328.95,-899.05 -733.89,-1219.57 -19.69,-467.85 -51.47,-737.15 -318.19,-1011.67 -265.42,-273.17 -490.63,-334.95 -988.36,-354.19 -57.99,-69.71 -77.7,-130.47 -139.46,-206.28 -310.35,-380.99 -860.26,-519.8 -1327.03,-387.73 -230.36,65.17 -322.13,139.19 -480.06,246.33z"/>
   <path class="fil1" d="M4155.82 19217.65c-314.95,0 -553.13,-75.59 -714.55,-226.74 -161.41,-151.16 -242.12,-367.93 -242.12,-650.31l0 -199.33 614.16 0 0 239.19c0,225.91 112.2,338.86 336.61,338.86 110.23,0 193.89,-27.41 250.98,-82.22 57.09,-54.81 85.63,-143.68 85.63,-266.6 0,-146.17 -39.37,-274.91 -118.11,-386.2 -78.73,-111.29 -224.41,-245.01 -437,-401.15 -267.71,-199.33 -454.72,-379.56 -561.01,-540.68 -106.3,-161.12 -159.45,-343.01 -159.45,-545.66 0,-275.74 82.68,-489.18 248.03,-640.35 165.35,-151.15 405.5,-226.73 720.46,-226.73 311.02,0 546.25,75.58 705.69,226.73 159.44,151.17 239.17,367.93 239.17,650.32l0 144.51 -614.15 0 0 -179.39c0,-119.6 -27.57,-206.81 -82.69,-261.63 -55.11,-54.81 -135.83,-82.22 -242.11,-82.22 -216.54,0 -324.8,111.3 -324.8,333.88 0,126.24 40.36,244.18 121.05,353.81 80.71,109.62 227.37,242.51 439.96,398.66 271.65,199.32 458.64,380.38 561.01,543.17 102.36,162.78 153.54,353.8 153.54,573.06 0,285.71 -83.66,504.97 -250.98,657.79 -167.32,152.82 -410.43,229.23 -729.32,229.23zm2485.23 0c-318.9,0 -562.99,-76.41 -732.27,-229.23 -169.29,-152.82 -253.95,-368.76 -253.95,-647.82l0 -1833.82c0,-279.06 84.66,-495 253.95,-647.82 169.28,-152.82 413.37,-229.23 732.27,-229.23 318.89,0 562.97,76.41 732.26,229.23 169.29,152.82 253.94,368.76 253.94,647.82l0 1833.82c0,279.06 -84.65,495 -253.94,647.82 -169.29,152.82 -413.37,229.23 -732.26,229.23zm0 -498.33c224.39,0 336.6,-114.61 336.6,-343.84l0 -1903.58c0,-229.23 -112.21,-343.85 -336.6,-343.85 -224.41,0 -336.61,114.62 -336.61,343.85l0 1903.58c0,229.23 112.2,343.84 336.61,343.84zm1617.11 -3039.75l956.68 0c322.83,0 564.94,73.08 726.36,219.25 161.41,146.18 242.13,360.46 242.13,642.84l0 343.84c0,282.38 -80.72,496.66 -242.13,642.84 -161.42,146.17 -403.53,219.25 -726.36,219.25l-307.09 0 0 1420.22 -649.59 0 0 -3488.24zm956.68 1569.71c106.29,0 186.02,-24.92 239.16,-74.75 53.15,-49.84 79.72,-134.55 79.72,-254.15l0 -413.6c0,-119.6 -26.57,-204.31 -79.72,-254.15 -53.14,-49.83 -132.87,-74.75 -239.16,-74.75l-307.09 0 0 1071.4 307.09 0zm1516.72 -1569.71l649.58 0 0 1420.21 696.84 0 0 -1420.21 649.6 0 0 3488.24 -649.6 0 0 -1569.71 -696.84 0 0 1569.71 -649.58 0 0 -3488.24zm3613.14 3538.08c-318.89,0 -562.98,-76.41 -732.27,-229.23 -169.28,-152.82 -253.94,-368.76 -253.94,-647.82l0 -1833.82c0,-279.06 84.66,-495 253.94,-647.82 169.29,-152.82 413.38,-229.23 732.27,-229.23 318.9,0 562.98,76.41 732.26,229.23 169.3,152.82 253.95,368.76 253.95,647.82l0 1833.82c0,279.06 -84.65,495 -253.95,647.82 -169.28,152.82 -413.36,229.23 -732.26,229.23zm0 -498.33c224.4,0 336.61,-114.61 336.61,-343.84l0 -1903.58c0,-229.23 -112.21,-343.85 -336.61,-343.85 -224.4,0 -336.6,114.62 -336.6,343.85l0 1903.58c0,229.23 112.2,343.84 336.6,343.84zm2461.59 498.33c-314.95,0 -553.14,-75.59 -714.56,-226.74 -161.41,-151.16 -242.11,-367.93 -242.11,-650.31l0 -199.33 614.17 0 0 239.19c0,225.91 112.19,338.86 336.6,338.86 110.23,0 193.89,-27.41 250.97,-82.22 57.09,-54.81 85.64,-143.68 85.64,-266.6 0,-146.17 -39.38,-274.91 -118.11,-386.2 -78.74,-111.29 -224.41,-245.01 -437.01,-401.15 -267.71,-199.33 -454.72,-379.56 -561,-540.68 -106.31,-161.12 -159.45,-343.01 -159.45,-545.66 0,-275.74 82.67,-489.18 248.02,-640.35 165.35,-151.15 405.51,-226.73 720.47,-226.73 311.01,0 546.25,75.58 705.68,226.73 159.45,151.17 239.18,367.93 239.18,650.32l0 144.51 -614.16 0 0 -179.39c0,-119.6 -27.56,-206.81 -82.67,-261.63 -55.12,-54.81 -135.83,-82.22 -242.13,-82.22 -216.54,0 -324.8,111.3 -324.8,333.88 0,126.24 40.36,244.18 121.06,353.81 80.7,109.62 227.36,242.51 439.96,398.66 271.64,199.32 458.64,380.38 561,543.17 102.36,162.78 153.54,353.8 153.54,573.06 0,285.71 -83.65,504.97 -250.98,657.79 -167.31,152.82 -410.42,229.23 -729.31,229.23z"/>
   <path class="fil1" d="M1481.35 21110.18l-408.7 0 -65.51 193.42 -279.22 0 396.22 -1095.05 308.86 0 396.2 1095.05 -282.34 0 -65.51 -193.42zm-67.07 -202.79l-137.28 -404.01 -135.7 404.01 272.98 0zm801.78 -350.97c25.99,-40.56 61.88,-73.32 107.63,-98.28 45.76,-24.96 99.31,-37.44 160.68,-37.44 71.75,0 136.74,18.2 194.98,54.59 58.24,36.41 104.25,88.4 138.05,156 33.8,67.6 50.7,146.11 50.7,235.54 0,89.44 -16.9,168.21 -50.7,236.33 -33.8,68.12 -79.81,120.63 -138.05,157.54 -58.24,36.92 -123.23,55.39 -194.98,55.39 -60.32,0 -113.62,-12.49 -159.9,-37.45 -46.28,-24.95 -82.42,-57.19 -108.41,-96.71l0 536.61 -266.74 0 0 -1285.36 266.74 0 0 123.24zm380.61 310.41c0,-66.55 -18.45,-118.81 -55.37,-156.77 -36.92,-37.95 -82.42,-56.93 -136.5,-56.93 -53.03,0 -98,19.24 -134.92,57.71 -36.92,38.48 -55.38,91 -55.38,157.55 0,66.56 18.46,119.08 55.38,157.55 36.92,38.48 81.89,57.72 134.92,57.72 53.04,0 98.28,-19.5 135.72,-58.5 37.44,-39 56.15,-91.77 56.15,-158.33zm678.56 -717.55l0 1154.32 -266.74 0 0 -1154.32 266.74 0zm327.58 193.43c-46.8,0 -85.02,-13.78 -114.66,-41.34 -29.64,-27.56 -44.46,-61.61 -44.46,-102.18 0,-41.59 14.82,-76.17 44.46,-103.73 29.64,-27.56 67.86,-41.33 114.66,-41.33 45.75,0 83.45,13.77 113.08,41.33 29.64,27.56 44.46,62.14 44.46,103.73 0,40.57 -14.82,74.62 -44.46,102.18 -29.63,27.56 -67.33,41.34 -113.08,41.34zm132.58 90.47l0 870.42 -266.74 0 0 -870.42 266.74 0zm140.4 435.21c0,-90.47 18.45,-169.5 55.37,-237.1 36.92,-67.6 88.39,-119.59 154.43,-156 66.03,-36.39 141.69,-54.59 226.96,-54.59 109.2,0 200.45,28.6 273.76,85.8 73.33,57.19 121.42,137.78 144.3,241.78l-283.9 0c-23.93,-66.55 -70.2,-99.83 -138.84,-99.83 -48.87,0 -87.87,18.98 -116.99,56.93 -29.12,37.96 -43.67,92.3 -43.67,163.01 0,70.72 14.55,125.06 43.67,163.01 29.12,37.96 68.12,56.94 116.99,56.94 68.64,0 114.91,-33.28 138.84,-99.84l283.9 0c-22.88,101.92 -71.24,182 -145.08,240.23 -73.83,58.24 -164.82,87.36 -272.98,87.36 -85.27,0 -160.93,-18.2 -226.96,-54.61 -66.04,-36.39 -117.51,-88.39 -154.43,-155.98 -36.92,-67.6 -55.37,-146.63 -55.37,-237.11zm943.73 -1.56c0,-89.43 16.9,-167.94 50.69,-235.54 33.8,-67.6 79.82,-119.59 138.06,-156 58.23,-36.39 123.22,-54.59 194.99,-54.59 61.35,0 115.16,12.48 161.44,37.44 46.28,24.96 81.9,57.72 106.86,98.28l0 -123.24 266.74 0 0 870.42 -266.74 0 0 -123.23c-26,40.56 -62.14,73.32 -108.42,98.27 -46.28,24.96 -100.09,37.45 -161.44,37.45 -70.72,0 -135.2,-18.47 -193.43,-55.39 -58.24,-36.91 -104.26,-89.42 -138.06,-157.54 -33.79,-68.12 -50.69,-146.89 -50.69,-236.33zm652.04 1.56c0,-66.55 -18.47,-119.07 -55.38,-157.55 -36.92,-38.47 -81.9,-57.71 -134.93,-57.71 -53.04,0 -98.02,18.98 -134.94,56.93 -36.91,37.96 -55.37,90.22 -55.37,156.77 0,66.56 18.46,119.33 55.37,158.33 36.92,39 81.9,58.5 134.94,58.5 53.03,0 98.01,-19.24 134.93,-57.72 36.91,-38.47 55.38,-90.99 55.38,-157.55zm945.29 209.03l0 226.18 -135.71 0c-96.72,0 -172.1,-23.65 -226.18,-70.97 -54.08,-47.31 -81.12,-124.54 -81.12,-231.65l0 -346.29 -106.07 0 0 -221.51 106.07 0 0 -212.14 266.74 0 0 212.14 174.71 0 0 221.51 -174.71 0 0 349.41c0,26 6.24,44.72 18.73,56.16 12.48,11.44 33.27,17.16 62.39,17.16l95.15 0zm282.35 -734.71c-46.8,0 -85.01,-13.78 -114.65,-41.34 -29.64,-27.56 -44.46,-61.61 -44.46,-102.18 0,-41.59 14.82,-76.17 44.46,-103.73 29.64,-27.56 67.85,-41.33 114.65,-41.33 45.76,0 83.45,13.77 113.09,41.33 29.64,27.56 44.46,62.14 44.46,103.73 0,40.57 -14.82,74.62 -44.46,102.18 -29.64,27.56 -67.33,41.34 -113.09,41.34zm132.59 90.47l0 870.42 -266.74 0 0 -870.42 266.74 0zm584.96 620.85l188.74 -620.85 285.47 0 -308.87 870.42 -330.69 0 -308.86 -870.42 285.46 0 188.75 620.85zm981.17 262.06c-85.28,0 -161.97,-18.2 -230.08,-54.61 -68.11,-36.39 -121.67,-88.39 -160.67,-155.98 -39,-67.6 -58.49,-146.63 -58.49,-237.11 0,-89.43 19.75,-168.2 59.27,-236.32 39.51,-68.12 93.59,-120.37 162.23,-156.78 68.64,-36.39 145.58,-54.59 230.86,-54.59 85.27,0 162.23,18.2 230.87,54.59 68.63,36.41 122.71,88.66 162.23,156.78 39.51,68.12 59.27,146.89 59.27,236.32 0,89.44 -20.01,168.21 -60.05,236.33 -40.04,68.12 -94.63,120.37 -163.79,156.76 -69.15,36.41 -146.38,54.61 -231.65,54.61zm0 -229.31c50.96,0 94.38,-18.98 130.26,-56.94 35.87,-37.95 53.81,-91.77 53.81,-161.45 0,-69.67 -17.42,-123.49 -52.25,-161.45 -34.85,-37.95 -77.74,-56.93 -128.7,-56.93 -51.99,0 -95.15,18.72 -129.47,56.15 -34.31,37.44 -51.47,91.52 -51.47,162.23 0,69.68 16.89,123.5 50.69,161.45 33.8,37.96 76.18,56.94 127.13,56.94zm949.98 229.31c-74.87,0 -141.95,-13.01 -201.23,-39.01 -59.27,-25.99 -106.06,-61.61 -140.38,-106.85 -34.33,-45.23 -53.56,-95.93 -57.73,-152.09l263.63 0c3.12,32.24 16.9,57.98 41.34,77.22 24.43,19.24 55.38,28.86 92.81,28.86 33.28,0 59.01,-6.77 77.22,-20.28 18.2,-13.52 27.29,-31.72 27.29,-54.6 0,-24.96 -12.99,-43.68 -38.99,-56.16 -26,-12.48 -68.64,-25.47 -127.91,-38.99 -62.4,-14.56 -114.13,-29.64 -155.21,-45.24 -41.08,-15.6 -76.44,-40.82 -106.07,-75.65 -29.64,-34.84 -44.46,-81.38 -44.46,-139.62 0,-50.96 13.78,-96.97 41.34,-138.04 27.55,-41.09 67.85,-73.84 120.89,-98.28 53.03,-24.43 116.47,-36.66 190.31,-36.66 109.18,0 195.24,27.04 258.16,81.12 62.91,54.07 99.05,125.83 108.41,215.26l-246.47 0c-4.15,-32.23 -17.41,-57.45 -39.77,-75.65 -22.36,-18.2 -51.74,-27.3 -88.13,-27.3 -31.2,0 -55.12,6.24 -71.76,18.72 -16.64,12.48 -24.96,30.15 -24.96,53.03 0,24.96 13.26,43.68 39.78,56.16 26.52,12.48 67.86,24.96 124.01,37.44 63.44,15.6 115.95,31.45 157.55,47.58 41.59,16.11 77.48,42.11 107.63,77.99 30.16,35.88 45.24,83.98 45.24,144.29 0,50.95 -14.04,96.72 -42.12,137.27 -28.08,40.56 -68.89,72.28 -122.45,95.15 -53.56,22.88 -116.21,34.33 -187.97,34.33zm1698.73 -463.29c0,23.91 -1.56,49.39 -4.68,76.43l-603.68 0c4.16,55.12 21.32,97.24 51.47,126.36 30.16,29.11 68.12,43.67 113.88,43.67 66.55,0 112.83,-28.08 138.83,-84.24l283.9 0c-14.56,57.2 -40.82,108.68 -78.77,154.43 -37.97,45.76 -85.54,81.64 -142.74,107.63 -57.2,26 -121.15,39.01 -191.86,39.01 -85.28,0 -161.19,-18.2 -227.75,-54.61 -66.55,-36.39 -118.55,-88.39 -155.99,-155.98 -37.44,-67.6 -56.15,-146.63 -56.15,-237.11 0,-90.47 18.45,-169.5 55.37,-237.1 36.92,-67.6 88.66,-119.59 155.21,-156 66.56,-36.39 142.99,-54.59 229.31,-54.59 84.23,0 159.1,17.69 224.62,53.04 65.52,35.35 116.73,85.8 153.65,151.31 36.92,65.51 55.38,141.43 55.38,227.75zm-272.99 -59.28c0,-49.92 -15.59,-88.92 -46.79,-117 -31.2,-28.07 -70.19,-42.11 -116.99,-42.11 -45.76,0 -83.98,13.77 -114.66,41.33 -30.68,27.56 -49.65,66.82 -56.93,117.78l335.37 0zm1561.46 -584.97l0 210.59 -290.14 0 0 884.46 -266.74 0 0 -884.46 -290.14 0 0 -210.59 847.02 0zm954.66 644.25c0,23.91 -1.56,49.39 -4.68,76.43l-603.68 0c4.16,55.12 21.32,97.24 51.47,126.36 30.17,29.11 68.12,43.67 113.88,43.67 66.56,0 112.83,-28.08 138.83,-84.24l283.9 0c-14.56,57.2 -40.82,108.68 -78.77,154.43 -37.96,45.76 -85.54,81.64 -142.74,107.63 -57.19,26 -121.15,39.01 -191.86,39.01 -85.27,0 -161.19,-18.2 -227.75,-54.61 -66.55,-36.39 -118.55,-88.39 -155.99,-155.98 -37.44,-67.6 -56.15,-146.63 -56.15,-237.11 0,-90.47 18.46,-169.5 55.37,-237.1 36.92,-67.6 88.66,-119.59 155.21,-156 66.56,-36.39 142.99,-54.59 229.31,-54.59 84.23,0 159.1,17.69 224.63,53.04 65.51,35.35 116.72,85.8 153.64,151.31 36.92,65.51 55.38,141.43 55.38,227.75zm-272.99 -59.28c0,-49.92 -15.59,-88.92 -46.79,-117 -31.2,-28.07 -70.19,-42.11 -116.99,-42.11 -45.76,0 -83.98,13.77 -114.66,41.33 -30.67,27.56 -49.65,66.82 -56.93,117.78l335.37 0zm29.64 -577.16l-375.93 157.55 0 -184.08 375.93 -180.94 0 207.47zm330.71 652.03c0,-90.47 18.45,-169.5 55.37,-237.1 36.92,-67.6 88.39,-119.59 154.42,-156 66.04,-36.39 141.7,-54.59 226.97,-54.59 109.2,0 200.45,28.6 273.76,85.8 73.32,57.19 121.42,137.78 144.3,241.78l-283.9 0c-23.93,-66.55 -70.2,-99.83 -138.84,-99.83 -48.87,0 -87.87,18.98 -116.99,56.93 -29.12,37.96 -43.67,92.3 -43.67,163.01 0,70.72 14.55,125.06 43.67,163.01 29.12,37.96 68.12,56.94 116.99,56.94 68.64,0 114.91,-33.28 138.84,-99.84l283.9 0c-22.88,101.92 -71.24,182 -145.08,240.23 -73.83,58.24 -164.82,87.36 -272.98,87.36 -85.27,0 -160.93,-18.2 -226.97,-54.61 -66.03,-36.39 -117.5,-88.39 -154.42,-155.98 -36.92,-67.6 -55.37,-146.63 -55.37,-237.11zm1527.13 -444.57c101.91,0 183.29,33.02 244.12,99.06 60.83,66.03 91.26,156.76 91.26,272.2l0 508.52 -265.18 0 0 -472.64c0,-58.24 -15.08,-103.48 -45.25,-135.72 -30.15,-32.24 -70.71,-48.35 -121.66,-48.35 -50.96,0 -91.52,16.11 -121.68,48.35 -30.16,32.24 -45.24,77.48 -45.24,135.72l0 472.64 -266.74 0 0 -870.42 266.74 0 0 115.44c27.05,-38.48 63.44,-68.9 109.2,-91.26 45.75,-22.36 97.23,-33.54 154.43,-33.54zm917.22 892.27c-85.28,0 -161.97,-18.2 -230.09,-54.61 -68.11,-36.39 -121.67,-88.39 -160.67,-155.98 -39,-67.6 -58.49,-146.63 -58.49,-237.11 0,-89.43 19.76,-168.2 59.27,-236.32 39.52,-68.12 93.6,-120.37 162.23,-156.78 68.64,-36.39 145.59,-54.59 230.87,-54.59 85.27,0 162.22,18.2 230.86,54.59 68.64,36.41 122.72,88.66 162.23,156.78 39.52,68.12 59.27,146.89 59.27,236.32 0,89.44 -20.01,168.21 -60.05,236.33 -40.04,68.12 -94.63,120.37 -163.79,156.76 -69.15,36.41 -146.37,54.61 -231.64,54.61zm0 -229.31c50.96,0 94.37,-18.98 130.25,-56.94 35.87,-37.95 53.81,-91.77 53.81,-161.45 0,-69.67 -17.41,-123.49 -52.25,-161.45 -34.84,-37.95 -77.73,-56.93 -128.69,-56.93 -52,0 -95.16,18.72 -129.48,56.15 -34.31,37.44 -51.47,91.52 -51.47,162.23 0,69.68 16.89,123.5 50.69,161.45 33.8,37.96 76.18,56.94 127.14,56.94zm864.18 -937.5l0 1154.32 -266.74 0 0 -1154.32 266.74 0zm589.64 1166.81c-85.28,0 -161.97,-18.2 -230.09,-54.61 -68.11,-36.39 -121.66,-88.39 -160.66,-155.98 -39.01,-67.6 -58.5,-146.63 -58.5,-237.11 0,-89.43 19.76,-168.2 59.28,-236.32 39.51,-68.12 93.59,-120.37 162.22,-156.78 68.64,-36.39 145.59,-54.59 230.87,-54.59 85.27,0 162.23,18.2 230.87,54.59 68.63,36.41 122.71,88.66 162.22,156.78 39.52,68.12 59.28,146.89 59.28,236.32 0,89.44 -20.02,168.21 -60.06,236.33 -40.03,68.12 -94.63,120.37 -163.78,156.76 -69.16,36.41 -146.38,54.61 -231.65,54.61zm0 -229.31c50.96,0 94.37,-18.98 130.25,-56.94 35.88,-37.95 53.82,-91.77 53.82,-161.45 0,-69.67 -17.42,-123.49 -52.26,-161.45 -34.84,-37.95 -77.73,-56.93 -128.69,-56.93 -52,0 -95.15,18.72 -129.47,56.15 -34.32,37.44 -51.48,91.52 -51.48,162.23 0,69.68 16.9,123.5 50.7,161.45 33.79,37.96 76.17,56.94 127.13,56.94zm928.14 -666.08c61.36,0 115.17,12.48 161.45,37.44 46.28,24.96 81.89,57.72 106.85,98.28l0 -123.24 266.74 0 0 868.86c0,80.08 -15.85,152.61 -47.57,217.61 -31.72,64.99 -80.07,116.73 -145.07,155.21 -65,38.48 -145.85,57.72 -242.56,57.72 -128.95,0 -233.47,-30.42 -313.54,-91.25 -80.08,-60.84 -125.84,-143.26 -137.28,-247.25l263.63 0c8.31,33.27 28.07,59.54 59.27,78.77 31.2,19.24 69.68,28.86 115.44,28.86 55.11,0 99.05,-15.86 131.8,-47.58 32.76,-31.71 49.14,-82.41 49.14,-152.09l0 -123.23c-25.99,40.56 -61.87,73.58 -107.63,99.05 -45.76,25.49 -99.31,38.23 -160.67,38.23 -71.76,0 -136.75,-18.47 -194.98,-55.39 -58.24,-36.91 -104.26,-89.42 -138.06,-157.54 -33.8,-68.12 -50.69,-146.89 -50.69,-236.33 0,-89.43 16.89,-167.94 50.69,-235.54 33.8,-67.6 79.82,-119.59 138.06,-156 58.23,-36.39 123.22,-54.59 194.98,-54.59zm268.3 447.69c0,-66.55 -18.46,-119.07 -55.38,-157.55 -36.92,-38.47 -81.89,-57.71 -134.92,-57.71 -53.04,0 -98.02,18.98 -134.94,56.93 -36.92,37.96 -55.37,90.22 -55.37,156.77 0,66.56 18.45,119.33 55.37,158.33 36.92,39 81.9,58.5 134.94,58.5 53.03,0 98,-19.24 134.92,-57.72 36.92,-38.47 55.38,-90.99 55.38,-157.55zm594.33 -525.68c-46.81,0 -85.02,-13.78 -114.66,-41.34 -29.64,-27.56 -44.46,-61.61 -44.46,-102.18 0,-41.59 14.82,-76.17 44.46,-103.73 29.64,-27.56 67.85,-41.33 114.66,-41.33 45.75,0 83.45,13.77 113.08,41.33 29.64,27.56 44.46,62.14 44.46,103.73 0,40.57 -14.82,74.62 -44.46,102.18 -29.63,27.56 -67.33,41.34 -113.08,41.34zm132.58 90.47l0 870.42 -266.74 0 0 -870.42 266.74 0zm140.4 433.65c0,-89.43 16.89,-167.94 50.69,-235.54 33.8,-67.6 79.82,-119.59 138.05,-156 58.24,-36.39 123.23,-54.59 194.99,-54.59 61.36,0 115.17,12.48 161.45,37.44 46.27,24.96 81.89,57.72 106.85,98.28l0 -123.24 266.74 0 0 870.42 -266.74 0 0 -123.23c-26,40.56 -62.14,73.32 -108.41,98.27 -46.28,24.96 -100.09,37.45 -161.45,37.45 -70.72,0 -135.19,-18.47 -193.43,-55.39 -58.23,-36.91 -104.25,-89.42 -138.05,-157.54 -33.8,-68.12 -50.69,-146.89 -50.69,-236.33zm652.03 1.56c0,-66.55 -18.46,-119.07 -55.38,-157.55 -36.92,-38.47 -81.89,-57.71 -134.93,-57.71 -53.04,0 -98.01,18.98 -134.93,56.93 -36.92,37.96 -55.37,90.22 -55.37,156.77 0,66.56 18.45,119.33 55.37,158.33 36.92,39 81.89,58.5 134.93,58.5 53.04,0 98.01,-19.24 134.93,-57.72 36.92,-38.47 55.38,-90.99 55.38,-157.55z"/>
  </g>
 </g>
</svg>
